<svg width="45" height="78" viewBox="0 0 45 78" fill="none" xmlns="http://www.w3.org/2000/svg">
<path d="M0.101607 0.00908473C1.26631 0.0120616 2.69239 0.0543281 3.83656 0C3.80083 1.25029 3.77597 2.50089 3.76198 3.75147C5.02343 3.73763 6.28489 3.73405 7.54635 3.7409C7.52655 4.82166 7.45019 6.42114 7.54307 7.45724C6.47184 7.4364 4.81029 7.45412 3.78758 7.34248L3.78743 55.8192C5.03192 55.7939 6.30424 55.7537 7.54635 55.7478C7.52834 56.9505 7.48949 58.2067 7.53161 59.4049L3.78729 59.3841C3.7864 60.618 3.76079 61.9367 3.79339 63.1632C2.5617 63.1066 1.32823 63.0977 0.0959473 63.1379L0.149384 59.0105L0.164119 19.9594C0.166947 13.7926 0.380243 6.02164 0.101607 0.00908473Z" fill="black" fill-opacity="0.988235"/>
<path d="M0 39.0148L0.189625 39.0029C1.0294 38.9389 2.12222 39.4107 2.83027 39.8498C3.68002 40.3782 3.61423 40.4973 3.79166 41.3353C3.53579 41.2087 3.55038 41.24 3.35867 41.0688C2.41753 40.2323 1.40151 39.8334 0.227727 39.4851L0 39.0148Z" fill="black" fill-opacity="0.988235"/>
<path d="M37.2629 37.111C38.4954 37.2078 39.7382 37.1825 40.9751 37.1765C40.9453 38.4402 40.8977 39.6875 40.9662 40.9497C42.2075 40.9199 43.4876 40.9066 44.723 40.844C44.6962 41.941 44.6084 43.5485 44.6739 44.6053C40.149 44.3597 33.9631 44.8688 29.8252 44.5011C29.8163 46.9511 29.849 49.547 29.7091 51.9791C31.0398 52.0222 32.165 52.0327 33.4957 51.9925C33.4942 54.0897 33.3856 57.4104 33.524 59.4079L29.8326 59.4034C29.8609 56.9654 29.8431 54.499 29.8446 52.0594C28.63 51.9478 27.3246 51.9895 26.0981 52.0014C26.2619 48.7045 26.0594 45.2558 26.1368 41.9202C26.1056 41.4602 26.0952 41.4766 26.2083 41.0346C26.6563 40.7681 26.7903 40.8991 27.4422 40.9542C28.7997 40.8128 35.8891 40.8351 37.2257 40.9557C37.2778 39.6741 37.2912 38.3926 37.2629 37.111Z" fill="black" fill-opacity="0.988235"/>
<path d="M26.1369 41.9201C26.1057 41.4602 26.0953 41.4766 26.2084 41.0345C26.6564 40.7681 26.7904 40.8991 27.4423 40.9541C27.1982 41.7118 27.0062 42.7194 26.6207 43.3044L26.4123 43.2627C26.1399 42.7596 26.1712 42.4872 26.1369 41.9201Z" fill="black" fill-opacity="0.988235"/>
<path d="M16.3388 44.583L18.6595 44.5875C18.5614 46.8499 18.6477 49.6273 18.6257 51.9568C19.9138 52.0639 21.1313 52.0461 22.4203 52.0431L22.4158 59.4153C21.0465 59.3722 19.945 59.71 18.8972 59.2263C18.5539 58.7158 18.6882 58.6294 18.6952 57.8688L18.7083 52.0237C16.5975 51.8898 13.501 51.9791 11.3159 51.9746C11.2731 50.8404 11.329 49.419 11.3427 48.2639C12.5153 48.3756 13.7999 48.3384 14.9867 48.3324C15.0042 47.1908 14.7501 46.0223 15.0915 44.9596C15.5296 44.5205 15.5318 44.6634 16.3388 44.583Z" fill="black" fill-opacity="0.988235"/>
<path d="M22.4887 59.4927C23.4577 59.4853 25.1724 59.521 26.0818 59.4287C26.0952 61.898 26.0833 64.3674 26.0446 66.8382C27.3113 66.8545 28.572 66.8813 29.8372 66.8471C29.8163 68.5052 29.663 72.8411 29.8387 74.2849C28.6241 74.2834 27.3336 74.2566 26.1265 74.2923L26.1473 66.8932C24.8449 66.8501 23.7033 66.8263 22.4009 66.8575C22.4069 65.7873 22.2923 60.1298 22.4887 59.4927Z" fill="black" fill-opacity="0.988235"/>
<path d="M33.5239 59.4079C34.9677 59.4972 35.7953 59.4793 37.2406 59.39C37.2435 61.8058 37.2778 64.2974 37.178 66.7042C36.7226 66.9617 34.2905 66.8456 33.5477 66.8605C33.5626 64.415 33.6177 61.84 33.5239 59.4079Z" fill="black" fill-opacity="0.988235"/>
<path d="M29.8386 74.2848C31.7899 74.4173 35.2446 74.3235 37.2763 74.2714C37.1587 75.0395 37.1974 77.2334 37.2808 78C34.8502 77.9375 32.2543 77.9821 29.8118 77.9821C29.8639 76.8092 29.8356 75.4711 29.8386 74.2848Z" fill="black" fill-opacity="0.988235"/>
<path d="M37.2571 66.8591C37.8569 66.8546 40.6091 66.74 40.9246 67.0124L40.9335 74.2879L37.2764 74.2715C37.2794 71.9078 37.3464 69.1929 37.2571 66.8591Z" fill="black" fill-opacity="0.988235"/>
<path d="M9.0232 52.0267C9.76147 52.046 10.4802 51.991 11.2173 51.9493C11.1866 53.274 11.4739 54.3635 11.0836 55.5588C10.671 55.8728 10.7291 55.7582 10.0475 55.7225C9.17874 55.7061 8.41769 55.7299 7.55172 55.7612C7.58819 54.4454 7.28038 53.3469 7.69149 52.305C8.1916 51.9165 8.23046 52.0535 9.0232 52.0267Z" fill="black" fill-opacity="0.988235"/>
<path d="M18.6587 18.5767L22.4307 18.6148C22.4173 19.7329 22.3548 21.2112 22.4024 22.3018C21.1626 22.2576 19.9212 22.2469 18.6797 22.2696C18.7039 20.9818 18.7111 19.8615 18.6587 18.5767Z" fill="black" fill-opacity="0.988235"/>
<path d="M22.4023 22.3018C23.6318 22.3249 24.8612 22.3182 26.0906 22.2812C26.0802 23.176 26.0058 25.2555 26.1219 26.0525C24.8791 25.9599 23.6332 25.951 22.3904 26.0256C22.4365 24.811 22.4083 23.5229 22.4023 22.3018Z" fill="black" fill-opacity="0.988235"/>
<path d="M26.1221 26.0525C27.3411 26.0412 28.6301 26.0075 29.8432 26.0397C29.806 27.1498 29.6958 28.7576 29.8536 29.8153C28.7209 29.6689 27.2592 29.6308 26.1221 29.7365C26.1325 28.5891 26.1831 27.1782 26.1221 26.0525Z" fill="black" fill-opacity="0.988235"/>
<path d="M11.2451 11.1812C12.4808 11.1736 13.7383 11.179 14.9717 11.1552C14.9548 12.3151 14.8952 13.7489 14.9701 14.8843C13.7878 14.844 12.4585 14.8694 11.264 14.8649C11.3323 13.798 11.3838 12.2265 11.2451 11.1812Z" fill="black" fill-opacity="0.988235"/>
<path d="M7.54306 7.45727L11.24 7.4342C11.2253 8.37728 11.1421 10.3188 11.2451 11.1812C10.0079 11.1175 8.76164 11.1495 7.52222 11.1653C7.57282 9.83312 7.60051 8.78436 7.54306 7.45727Z" fill="black" fill-opacity="0.988235"/>
<path d="M14.9702 14.8843C16.1753 14.8959 17.4872 14.9358 18.6815 14.8661C18.6678 15.7589 18.5816 17.7685 18.6587 18.5767L14.9744 18.6075C14.9949 17.3666 14.9934 16.1252 14.9702 14.8843Z" fill="black" fill-opacity="0.988235"/>
<path d="M33.53 33.4597L37.2749 33.4764L37.2452 37.1914C35.9502 36.98 34.8398 37.0232 33.539 37.1899C33.5434 36.1406 33.6045 34.4611 33.53 33.4597Z" fill="black" fill-opacity="0.988235"/>
<path d="M29.8372 29.7486L33.5374 29.754C33.5077 30.7804 33.4065 32.4976 33.53 33.4597C32.1204 33.3883 31.2184 33.3534 29.8208 33.4411C29.8268 32.2204 29.8491 30.9657 29.8372 29.7486Z" fill="black" fill-opacity="0.988235"/>
</svg>
